<svg xmlns="http://www.w3.org/2000/svg" xmlns:xlink="http://www.w3.org/1999/xlink" viewBox="0 0 816 377"><path d="M 485.393 93.405 C 492.713 71.578 516.336 59.82 538.155 67.143 C 559.974 74.466 571.727 98.098 564.407 119.925 C 557.086 141.752 533.464 153.51 511.645 146.187 C 489.826 138.864 478.073 115.232 485.393 93.405 Z" fill="rgb(253,246,238)" stroke-width="7.27" stroke="rgb(28,28,28)" stroke-miterlimit="10"></path><path d="M 548.297 114.519 C 543.962 127.446 529.972 134.409 517.05 130.072 C 504.127 125.735 497.166 111.739 501.502 98.812" fill="transparent" stroke-width="7.27" stroke="rgb(28,28,28)" stroke-linecap="round" stroke-miterlimit="10"></path><path d="M 531.434 110.38 C 533.9 111.208 537.799 106.212 540.143 99.222 C 542.487 92.232 542.389 85.895 539.923 85.067 C 537.456 84.239 533.557 89.235 531.213 96.224 C 528.869 103.214 528.967 109.552 531.434 110.38 Z M 516.421 105.341 C 518.887 106.169 522.787 101.173 525.131 94.184 C 527.475 87.194 527.376 80.857 524.91 80.028 C 522.445 79.201 518.545 84.197 516.201 91.186 C 513.857 98.176 513.955 104.513 516.421 105.341 Z" fill="rgb(28,28,28)"></path><path d="M 349.208 226.728 C 357.023 182.385 399.292 152.776 443.617 160.595 L 748.291 214.339 C 792.616 222.157 822.213 264.442 814.397 308.784 C 806.582 353.126 764.313 382.735 719.988 374.916 L 415.314 321.173 C 370.988 313.355 341.391 271.069 349.208 226.728 Z" fill="rgb(242,164,211)"></path><path d="M 468.45 250.023 L 474.024 218.394 L 434.486 211.42 L 431.325 229.351 L 453.018 233.177 L 450.59 246.952 C 450.59 246.952 448.889 254.348 436.043 252.082 C 423.197 249.817 424.933 239.966 424.933 239.966 L 407.394 236.872 C 407.394 236.872 403.578 261.67 433.964 267.03 C 464.349 272.389 468.45 250.023 468.45 250.023 Z M 535.988 285.105 C 538.526 270.715 540.37 258.9 538.518 250.956 C 535.598 239.174 517.507 234.713 508.738 233.167 C 492.352 230.276 480.28 233.066 479.868 233.152 L 481.802 246.03 C 481.893 245.967 490.589 244.327 505.205 246.905 C 514.975 248.629 519.581 250.393 520.659 257.328 C 516.776 255.057 511.546 252.784 503.853 251.428 C 489.622 248.918 475.151 250.014 473.415 259.865 C 470.933 273.948 487.391 277.327 499.237 279.416 C 507.161 280.814 514.336 279.7 519.014 277.906 L 518.296 281.985 Z M 503.294 268.548 C 497.986 267.611 492.298 266.132 492.801 263.284 C 493.153 261.284 496.56 260.853 505.252 262.387 C 518.252 264.68 519.276 266.527 519.656 267.07 L 519.52 267.839 C 518.534 268.935 511.371 269.973 503.294 268.548 Z M 602.267 241.254 L 599.785 255.337 C 596.215 252.644 589.535 248.688 579.611 246.938 C 564.688 244.305 549.956 248.689 547.311 263.695 C 543.675 284.319 558.64 289.419 572.025 291.78 C 582.487 293.625 589.202 292.429 593.627 290.274 L 592.772 295.122 L 610.696 298.284 L 620.19 244.415 Z M 596.068 276.422 C 592.137 280.728 587.218 280.733 577.988 279.105 C 572.141 278.073 564.883 275.603 566.307 267.523 C 567.989 257.98 576.781 259.849 580.166 260.446 C 583.55 261.043 595.935 263.227 597.153 270.265 Z M 682.357 310.924 C 684.893 296.534 686.738 284.719 684.886 276.775 C 681.965 264.993 663.874 260.532 655.105 258.985 C 638.72 256.095 626.649 258.885 626.236 258.971 L 628.171 271.849 C 628.261 271.786 636.958 270.146 651.573 272.724 C 661.343 274.448 665.949 276.212 667.027 283.147 C 663.144 280.874 657.913 278.603 650.221 277.247 C 635.99 274.736 621.519 275.833 619.783 285.684 C 617.301 299.766 633.758 303.145 645.604 305.235 C 653.528 306.633 660.705 305.519 665.383 303.725 L 664.664 307.803 Z M 649.662 294.366 C 644.354 293.43 638.666 291.951 639.168 289.103 C 639.521 287.103 642.928 286.672 651.621 288.205 C 664.621 290.498 665.644 292.345 666.024 292.888 L 665.888 293.658 C 664.902 294.753 657.74 295.791 649.662 294.366 Z M 738.692 274.84 L 718.759 301.08 L 709.076 269.616 L 689.076 266.088 L 704.299 314.716 L 727.684 318.84 L 758.615 278.355 Z" fill="rgb(28,27,33)"></path><path d="M 448.468 162.394 C 442.64 202.296 411.914 235.763 370.044 243.148 L 348.14 247.012 C 347.763 240.618 348.136 234.201 349.252 227.894 C 357.088 183.436 399.467 153.751 443.908 161.59 Z" fill="rgb(230,105,175)"></path><path d="M 1.693 209.071 C -6.122 164.729 23.474 122.444 67.801 114.626 L 337.713 67.014 C 382.037 59.195 424.307 88.803 432.123 133.146 C 439.938 177.488 410.341 219.773 366.016 227.592 L 96.103 275.203 C 51.779 283.022 9.51 253.414 1.694 209.071 Z" fill="rgb(249,211,76)"></path><path d="M 26.085 84.878 C 24.292 74.71 31.079 65.014 41.242 63.222 L 115.877 50.057 C 126.042 48.264 135.733 55.052 137.526 65.22 C 139.318 75.388 132.531 85.085 122.368 86.877 L 47.733 100.042 C 37.569 101.836 27.877 95.047 26.085 84.879 Z" fill="rgb(185,228,255)"></path><path d="M 59.859 166.15 L 69.381 220.172 L 87.305 217.011 L 85.378 206.083 L 105.917 202.459 C 111.532 201.47 128.203 196.148 124.677 176.14 C 121.137 156.055 102.861 158.564 97.706 159.474 Z M 101.956 186.733 L 82.571 190.153 L 80.59 178.918 L 99.667 175.552 C 102.207 175.105 107.08 174.404 108.002 179.637 C 108.925 184.87 104.725 186.245 101.955 186.733 Z M 160.595 157.902 C 143.288 160.955 129.25 167.716 132.506 186.185 C 135.531 203.346 148.263 206.734 169.032 203.07 C 189.341 199.488 201.252 191.912 198.2 174.597 C 194.85 155.589 178.134 154.808 160.595 157.902 Z M 166.962 190.422 C 157.577 192.078 152.686 189.528 151.439 182.448 C 150.109 174.907 157.667 171.432 163.282 170.441 C 168.897 169.451 177.644 169.574 179.122 177.963 C 180.478 185.657 175.501 188.916 166.962 190.422 Z M 233.253 145.086 C 215.945 148.138 201.908 154.899 205.164 173.369 C 208.189 190.529 220.921 193.917 241.691 190.253 C 261.999 186.671 273.909 179.096 270.858 161.781 C 267.508 142.773 250.792 141.992 233.253 145.086 Z M 239.621 177.605 C 230.236 179.261 225.345 176.712 224.097 169.632 C 222.767 162.09 230.324 158.615 235.939 157.624 C 241.556 156.635 250.302 156.757 251.781 165.146 C 253.136 172.842 248.158 176.1 239.621 177.605 Z M 276.198 137.827 L 282.628 174.304 C 284.676 185.924 283.164 187.698 269.395 190.127 L 271.904 204.364 C 301.113 199.53 304.159 191.613 300.917 173.221 L 300.606 171.451 L 294.122 134.666 Z M 274.056 125.669 L 275.588 134.365 L 293.512 131.203 L 291.979 122.507 Z M 373.38 166.628 C 370.844 152.237 368.537 140.504 364.081 133.672 C 357.309 123.6 338.784 125.598 330.015 127.145 C 313.629 130.035 303.24 136.788 302.881 137.009 L 309.102 148.449 C 309.165 148.358 316.777 143.842 331.393 141.264 C 341.162 139.54 346.094 139.622 349.477 145.77 C 345.053 144.963 339.36 144.618 331.668 145.976 C 317.436 148.486 304.214 154.468 305.95 164.319 C 308.432 178.401 325.052 175.946 336.899 173.856 C 344.822 172.458 351.185 168.955 354.968 165.67 L 355.688 169.749 Z M 336.996 162.254 C 331.688 163.19 325.837 163.747 325.336 160.899 C 324.983 158.899 328.037 157.328 336.73 155.794 C 349.731 153.501 351.323 154.887 351.866 155.267 L 352.001 156.036 C 351.449 157.403 345.074 160.829 336.996 162.254 Z" fill="rgb(28,27,33)"></path><path d="M 158.27 80.429 L 172.419 77.933 L 164.913 35.345 L 150.763 37.84 Z M 261.116 62.35 C 259.113 50.988 257.293 41.725 253.775 36.332 C 248.428 28.381 233.803 29.959 226.88 31.179 C 213.945 33.461 205.742 38.792 205.46 38.967 L 210.37 47.998 C 210.42 47.926 216.429 44.361 227.968 42.326 C 235.681 40.965 239.574 41.03 242.246 45.883 C 238.753 45.247 234.258 44.974 228.185 46.046 C 216.95 48.028 206.511 52.751 207.882 60.527 C 209.842 71.645 222.963 69.707 232.315 68.056 C 238.571 66.953 243.594 64.188 246.58 61.594 L 247.148 64.814 Z M 232.392 58.897 C 228.201 59.637 223.582 60.075 223.186 57.827 C 222.907 56.249 225.319 55.008 232.181 53.798 C 242.445 51.988 243.703 53.081 244.13 53.381 L 244.238 53.989 C 243.802 55.068 238.768 57.772 232.392 58.897 Z M 337.663 19.906 C 333.773 13.827 327.844 13.934 321.649 15.026 C 313.268 16.505 308.266 20.457 305.108 24.208 C 301.272 19.498 295.778 19.589 290.069 20.597 C 283.024 21.839 279.402 24.733 276.247 27.795 L 275.487 23.482 L 261.337 25.979 L 267.537 61.155 L 281.687 58.658 L 278.218 38.974 C 279.668 35.838 282.573 33.132 287.128 32.329 C 296.237 30.722 296.018 38.716 296.928 43.881 L 298.995 55.606 L 312.963 53.141 L 312.481 50.408 C 311.186 43.057 310.2 37.467 309.076 33.218 C 310.512 30.709 314.396 27.519 318.768 26.747 C 327.877 25.141 327.477 33.167 328.387 38.331 L 330.453 50.057 L 344.543 47.572 L 344.061 44.837 C 341.759 31.775 340.453 24.364 337.663 19.906 Z" fill="rgb(253,246,238)"></path><path d="M 51.05 75.919 L 52.716 85.37 L 50.74 85.718 L 49.074 76.267 Z M 44.909 77.003 L 46.575 86.453 L 44.6 86.801 L 42.934 77.35 Z M 50.789 79.966 L 51.07 81.555 L 44.886 82.646 L 44.606 81.057 L 50.789 79.967 Z M 58.257 84.539 C 57.503 84.672 56.819 84.641 56.203 84.444 C 55.607 84.252 55.081 83.888 54.691 83.397 C 54.288 82.897 54.017 82.256 53.879 81.474 C 53.742 80.69 53.776 79.996 53.984 79.388 C 54.191 78.781 54.541 78.281 55.033 77.888 C 55.535 77.495 56.138 77.236 56.845 77.112 C 57.57 76.984 58.211 77.023 58.769 77.23 C 59.325 77.427 59.782 77.754 60.139 78.213 C 60.492 78.663 60.727 79.207 60.839 79.847 C 60.873 80.038 60.9 80.22 60.921 80.393 C 60.941 80.567 60.954 80.723 60.958 80.86 L 55.248 81.867 L 55.007 80.507 L 59.86 79.651 L 58.976 80.161 C 58.87 79.558 58.65 79.121 58.316 78.845 C 57.991 78.568 57.581 78.473 57.085 78.56 C 56.75 78.611 56.437 78.759 56.186 78.985 C 55.958 79.202 55.809 79.494 55.735 79.862 C 55.66 80.219 55.669 80.655 55.759 81.17 C 55.848 81.677 55.995 82.084 56.196 82.394 C 56.406 82.691 56.659 82.897 56.954 83.013 C 57.26 83.126 57.604 83.149 57.985 83.081 C 58.405 83.009 58.73 82.866 58.959 82.659 C 59.187 82.451 59.349 82.191 59.441 81.88 L 61.108 82.206 C 61.021 82.605 60.838 82.977 60.575 83.289 C 60.302 83.623 59.964 83.899 59.581 84.099 C 59.185 84.307 58.744 84.454 58.257 84.539 Z M 63.318 72.884 L 64.743 80.974 C 64.802 81.308 64.901 81.532 65.039 81.646 C 65.177 81.759 65.38 81.791 65.648 81.745 C 65.809 81.717 65.941 81.682 66.042 81.646 C 66.143 81.598 66.27 81.537 66.423 81.46 L 66.479 82.779 C 66.306 82.919 66.111 83.029 65.901 83.103 C 65.672 83.202 65.439 83.272 65.2 83.315 C 64.504 83.437 63.965 83.361 63.581 83.084 C 63.206 82.796 62.952 82.279 62.821 81.535 L 61.357 73.229 Z M 67.889 72.078 L 69.314 80.168 C 69.373 80.502 69.472 80.726 69.61 80.839 C 69.748 80.953 69.951 80.985 70.218 80.939 C 70.352 80.917 70.485 80.884 70.614 80.839 C 70.714 80.792 70.84 80.73 70.994 80.654 L 71.049 81.973 C 70.904 82.098 70.712 82.205 70.472 82.296 C 70.243 82.396 70.01 82.466 69.771 82.509 C 69.076 82.632 68.536 82.555 68.152 82.277 C 67.776 81.99 67.522 81.474 67.392 80.729 L 65.928 72.423 Z M 74.318 74.03 C 75.043 73.901 75.704 73.937 76.3 74.137 C 76.897 74.329 77.423 74.693 77.813 75.184 C 78.225 75.682 78.501 76.323 78.638 77.105 C 78.775 77.879 78.736 78.575 78.52 79.193 C 78.321 79.788 77.951 80.311 77.456 80.696 C 76.965 81.087 76.355 81.347 75.631 81.475 C 74.914 81.601 74.254 81.565 73.648 81.367 C 73.049 81.173 72.519 80.81 72.122 80.323 C 71.717 79.814 71.447 79.172 71.31 78.398 C 71.172 77.615 71.207 76.92 71.415 76.313 C 71.622 75.718 71.996 75.196 72.492 74.809 C 72.994 74.414 73.603 74.155 74.318 74.03 Z M 74.576 75.489 C 74.212 75.554 73.918 75.694 73.69 75.912 C 73.471 76.118 73.324 76.4 73.249 76.757 C 73.174 77.115 73.181 77.547 73.271 78.053 C 73.36 78.558 73.501 78.966 73.693 79.278 C 73.886 79.588 74.121 79.808 74.399 79.935 C 74.686 80.052 75.011 80.079 75.373 80.014 C 75.726 79.952 76.013 79.818 76.232 79.612 C 76.46 79.394 76.611 79.108 76.685 78.75 C 76.76 78.392 76.753 77.961 76.664 77.454 C 76.574 76.949 76.433 76.54 76.241 76.229 C 76.048 75.919 75.809 75.705 75.523 75.588 C 75.244 75.46 74.929 75.427 74.576 75.489 Z M 86.003 69.857 L 87.24 76.873 C 87.301 77.216 87.43 77.454 87.631 77.586 C 87.839 77.708 88.096 77.741 88.401 77.687 C 88.64 77.645 88.844 77.575 89.014 77.475 C 89.182 77.367 89.326 77.238 89.448 77.089 L 89.992 78.336 C 89.794 78.558 89.535 78.751 89.209 78.918 C 88.884 79.084 88.531 79.2 88.149 79.267 C 87.716 79.351 87.271 79.354 86.837 79.277 C 86.462 79.205 86.12 79.017 85.858 78.741 C 85.601 78.461 85.427 78.059 85.334 77.534 L 84.138 70.747 Z M 88.679 71.644 L 88.937 73.104 L 83.369 74.086 L 83.112 72.626 Z M 91.38 78.55 L 89.565 68.254 L 91.527 67.908 L 92.293 72.261 C 92.442 71.763 92.697 71.368 93.059 71.077 C 93.433 70.772 93.881 70.57 94.358 70.494 C 94.812 70.404 95.28 70.423 95.725 70.548 C 96.151 70.67 96.507 70.907 96.795 71.26 C 97.092 71.602 97.291 72.063 97.394 72.646 L 98.222 77.342 L 96.26 77.688 L 95.533 73.565 C 95.424 72.944 95.23 72.54 94.952 72.353 C 94.672 72.157 94.345 72.091 93.972 72.157 C 93.692 72.207 93.429 72.324 93.206 72.499 C 92.979 72.666 92.811 72.913 92.701 73.237 C 92.599 73.55 92.59 73.946 92.674 74.423 L 93.341 78.203 L 91.38 78.549 Z M 103.588 76.542 C 102.834 76.675 102.149 76.644 101.535 76.447 C 100.938 76.255 100.411 75.891 100.021 75.4 C 99.618 74.9 99.349 74.259 99.21 73.477 C 99.072 72.693 99.107 71.998 99.314 71.39 C 99.522 70.784 99.873 70.283 100.364 69.891 C 100.865 69.498 101.469 69.239 102.175 69.115 C 102.901 68.986 103.542 69.025 104.1 69.232 C 104.657 69.429 105.112 69.757 105.469 70.217 C 105.824 70.666 106.057 71.21 106.17 71.85 C 106.204 72.04 106.231 72.223 106.251 72.396 C 106.272 72.57 106.285 72.725 106.29 72.862 L 100.579 73.869 L 100.339 72.509 L 105.191 71.653 L 104.307 72.164 C 104.201 71.561 103.981 71.123 103.647 70.848 C 103.323 70.571 102.913 70.475 102.416 70.563 C 102.053 70.627 101.754 70.768 101.516 70.987 C 101.289 71.205 101.139 71.496 101.066 71.864 C 100.991 72.222 100.999 72.658 101.091 73.174 C 101.18 73.68 101.325 74.087 101.527 74.396 C 101.737 74.694 101.99 74.9 102.285 75.016 C 102.591 75.129 102.934 75.152 103.316 75.084 C 103.736 75.011 104.061 74.869 104.289 74.662 C 104.519 74.454 104.68 74.194 104.772 73.883 L 106.438 74.209 C 106.351 74.608 106.168 74.979 105.906 75.292 C 105.632 75.626 105.294 75.902 104.912 76.102 C 104.496 76.316 104.05 76.465 103.588 76.542 Z M 108.531 75.523 L 107.269 68.364 L 108.972 68.063 L 109.348 69.444 C 109.452 68.914 109.662 68.483 109.977 68.152 C 110.302 67.819 110.741 67.603 111.295 67.506 C 111.444 67.478 111.595 67.466 111.746 67.471 C 111.884 67.476 112.001 67.494 112.095 67.527 L 112.156 69.214 C 112.034 69.192 111.908 69.184 111.784 69.191 C 111.604 69.201 111.426 69.222 111.249 69.256 C 110.963 69.307 110.699 69.427 110.457 69.617 C 110.206 69.808 110.015 70.067 109.909 70.363 C 109.786 70.67 109.762 71.038 109.838 71.468 L 110.492 75.177 Z M 117.776 74.039 C 117.022 74.172 116.337 74.141 115.723 73.945 C 115.126 73.753 114.599 73.388 114.209 72.897 C 113.806 72.398 113.536 71.756 113.398 70.974 C 113.26 70.191 113.295 69.496 113.503 68.888 C 113.711 68.281 114.06 67.781 114.551 67.388 C 115.053 66.995 115.657 66.736 116.363 66.612 C 117.089 66.484 117.73 66.523 118.288 66.73 C 118.844 66.927 119.3 67.255 119.657 67.714 C 120.011 68.163 120.245 68.707 120.358 69.347 C 120.391 69.538 120.418 69.721 120.439 69.894 C 120.46 70.067 120.473 70.223 120.477 70.36 L 114.766 71.367 L 114.527 70.007 L 119.379 69.151 L 118.494 69.661 C 118.389 69.06 118.168 68.621 117.834 68.345 C 117.51 68.068 117.1 67.973 116.604 68.06 C 116.269 68.111 115.957 68.259 115.705 68.485 C 115.477 68.702 115.327 68.994 115.254 69.362 C 115.18 69.719 115.187 70.155 115.278 70.67 C 115.367 71.177 115.513 71.584 115.715 71.894 C 115.925 72.191 116.177 72.398 116.473 72.513 C 116.778 72.627 117.122 72.649 117.504 72.582 C 117.923 72.508 118.248 72.366 118.478 72.16 C 118.706 71.952 118.867 71.692 118.96 71.381 L 120.626 71.707 C 120.539 72.105 120.356 72.477 120.094 72.789 C 119.836 73.111 119.505 73.381 119.1 73.599 C 118.684 73.813 118.237 73.962 117.776 74.039 Z" fill="rgb(28,27,33)"></path></svg>